<svg xmlns="http://www.w3.org/2000/svg" width="353.37" height="122.99" fill="none"><g><g><path d="M0 0h353.37v122.99H0z"/><path d="M126.82 90V58.43q0-5.46-3-8.59a10.37 10.37 0 0 0-7.82-3.12 11.81 11.81 0 0 0-11.71 11.71h-5.68q0-10.71 6.3-18.06a20.86 20.86 0 0 1 30.5-1.4q5.9 6 5.91 16.11V90Z" style="fill:#fff"/><path d="M200 39a20.85 20.85 0 0 0-30.49 1.4c-.22.25-.41.52-.62.78v-6.95h-14.53V90h14.49V58.43a11.81 11.81 0 0 1 11.71-11.71 10.37 10.37 0 0 1 7.81 3.12q3 3.13 3 8.59V90h14.49V55.08Q205.87 44.94 200 39Z" style="fill:#fff"/><path d="M231.5 68a12.44 12.44 0 0 0 5.07 7.8 15.77 15.77 0 0 0 9.32 2.79 16.89 16.89 0 0 0 7.75-1.78 11.7 11.7 0 0 0 5.18-4.91l13.27 5a26.63 26.63 0 0 1-10.59 11A30.31 30.31 0 0 1 246 92a28.92 28.92 0 0 1-21.3-8.58q-8.59-8.59-8.59-21.52t8.37-21.36A27.86 27.86 0 0 1 245.22 32 29.52 29.52 0 0 1 275 61.89a29.36 29.36 0 0 1-.78 6.13Zm28.66-12.16a11.48 11.48 0 0 0-5-7.69 16.49 16.49 0 0 0-9.54-2.79 15.49 15.49 0 0 0-9.2 2.73 12.46 12.46 0 0 0-5 7.75Z" style="fill:#fff"/><path d="M317.25 33.34q-8.92 0-15 7.75c-.14.18-.26.37-.39.55v-7.41h-14.5V90h14.5V60.32a10.89 10.89 0 0 1 4.63-8.86 17.58 17.58 0 0 1 11.2-3.62h2.68v-14.5Z" style="fill:#fff"/><path d="M61.43 82.79v-35a7.19 7.19 0 0 1 7.19-7.19 7.19 7.19 0 0 1 7.19 7.19v35A7.19 7.19 0 0 1 68.62 90a7.19 7.19 0 0 1-7.19-7.21Zm7.19-52.59a7.19 7.19 0 0 0 7.19-7.2 7.19 7.19 0 0 0-7.19-7.2 7.19 7.19 0 0 0-7.19 7.2 7.19 7.19 0 0 0 7.19 7.2Z" style="fill:#fff"/><path d="M33 82.79a7.19 7.19 0 0 1 7.19-7.19 7.19 7.19 0 0 1 7.19 7.19A7.19 7.19 0 0 1 40.2 90a7.19 7.19 0 0 1-7.2-7.21Z" style="fill:#007af4"/><rect x="89.8" y="34.23" width="14.5" height="55.75" rx="7.25" style="fill:#007af4"/></g></g></svg>
